{
    "asset" : {
        "generator" : "Khronos glTF Blender I/O v1.6.16",
        "version" : "2.0"
    },
    "extensionsUsed" : [
        "KHR_materials_clearcoat"
    ],
    "scene" : 0,
    "scenes" : [
        {
            "name" : "Scene",
            "nodes" : [
                0,
                1,
                2
            ]
        }
    ],
    "nodes" : [
        {
            "mesh" : 0,
            "name" : "decoration",
            "translation" : [
                0,
                0.894720196723938,
                0
            ]
        },
        {
            "mesh" : 1,
            "name" : "candle",
            "translation" : [
                0,
                0.894720196723938,
                0
            ]
        },
        {
            "mesh" : 2,
            "name" : "cake"
        }
    ],
    "materials" : [
        {
            "doubleSided" : true,
            "extensions" : {
                "KHR_materials_clearcoat" : {
                    "clearcoatFactor" : 1,
                    "clearcoatRoughnessFactor" : 0.029999999329447746
                }
            },
            "name" : "ball",
            "pbrMetallicRoughness" : {
                "baseColorFactor" : [
                    0.799102783203125,
                    0,
                    0.00334653677418828,
                    1
                ],
                "metallicFactor" : 0,
                "roughnessFactor" : 0.15000000596046448
            }
        },
        {
            "doubleSided" : true,
            "name" : "cream",
            "pbrMetallicRoughness" : {
                "baseColorFactor" : [
                    0.800000011920929,
                    0.800000011920929,
                    0.800000011920929,
                    1
                ],
                "metallicFactor" : 0,
                "roughnessFactor" : 0.4000000059604645
            }
        },
        {
            "doubleSided" : true,
            "name" : "candle",
            "pbrMetallicRoughness" : {
                "baseColorFactor" : [
                    0.8000000715255737,
                    0.0009997503366321325,
                    0,
                    1
                ],
                "metallicFactor" : 0,
                "roughnessFactor" : 0.3499999940395355
            }
        },
        {
            "doubleSided" : true,
            "name" : "wick",
            "pbrMetallicRoughness" : {}
        },
        {
            "doubleSided" : true,
            "name" : "stand",
            "pbrMetallicRoughness" : {
                "baseColorFactor" : [
                    0.800000011920929,
                    0.800000011920929,
                    0.800000011920929,
                    1
                ],
                "metallicFactor" : 0,
                "roughnessFactor" : 0.10000000149011612
            }
        },
        {
            "doubleSided" : true,
            "extensions" : {
                "KHR_materials_clearcoat" : {
                    "clearcoatFactor" : 0.25,
                    "clearcoatRoughnessFactor" : 0.029999999329447746
                }
            },
            "name" : "cake",
            "pbrMetallicRoughness" : {
                "baseColorFactor" : [
                    0.011390219442546368,
                    0.0035501038655638695,
                    0.0015323351835832,
                    1
                ],
                "metallicFactor" : 0,
                "roughnessFactor" : 0.5
            }
        },
        {
            "doubleSided" : true,
            "name" : "base",
            "pbrMetallicRoughness" : {
                "baseColorFactor" : [
                    0.061246056109666824,
                    0.03189603611826897,
                    0.020288560539484024,
                    1
                ],
                "metallicFactor" : 0,
                "roughnessFactor" : 0.5
            }
        }
    ],
    "meshes" : [
        {
            "name" : "Sphere",
            "primitives" : [
                {
                    "attributes" : {
                        "POSITION" : 0,
                        "NORMAL" : 1
                    },
                    "indices" : 2,
                    "material" : 0
                },
                {
                    "attributes" : {
                        "POSITION" : 3,
                        "NORMAL" : 4
                    },
                    "indices" : 5,
                    "material" : 1
                }
            ]
        },
        {
            "name" : "Circle.001",
            "primitives" : [
                {
                    "attributes" : {
                        "POSITION" : 6,
                        "NORMAL" : 7
                    },
                    "indices" : 8,
                    "material" : 2
                },
                {
                    "attributes" : {
                        "POSITION" : 9,
                        "NORMAL" : 10
                    },
                    "indices" : 11,
                    "material" : 3
                },
                {
                    "attributes" : {
                        "POSITION" : 12,
                        "NORMAL" : 13
                    },
                    "indices" : 14,
                    "material" : 4
                }
            ]
        },
        {
            "name" : "Circle",
            "primitives" : [
                {
                    "attributes" : {
                        "POSITION" : 15,
                        "NORMAL" : 16,
                        "TEXCOORD_0" : 17
                    },
                    "indices" : 18,
                    "material" : 5
                },
                {
                    "attributes" : {
                        "POSITION" : 19,
                        "NORMAL" : 20,
                        "TEXCOORD_0" : 21
                    },
                    "indices" : 22,
                    "material" : 6
                }
            ]
        }
    ],
    "accessors" : [
        {
            "bufferView" : 0,
            "componentType" : 5126,
            "count" : 1351,
            "max" : [
                0.8285276293754578,
                0.1953161358833313,
                0.8285275101661682
            ],
            "min" : [
                -0.8748814463615417,
                0.0238071009516716,
                -0.8615900278091431
            ],
            "type" : "VEC3"
        },
        {
            "bufferView" : 1,
            "componentType" : 5126,
            "count" : 1351,
            "type" : "VEC3"
        },
        {
            "bufferView" : 2,
            "componentType" : 5123,
            "count" : 7728,
            "type" : "SCALAR"
        },
        {
            "bufferView" : 3,
            "componentType" : 5126,
            "count" : 672,
            "max" : [
                0.8615026473999023,
                0.041058652102947235,
                0.8370265364646912
            ],
            "min" : [
                -0.8935446739196777,
                -0.010706327855587006,
                -0.8910608887672424
            ],
            "type" : "VEC3"
        },
        {
            "bufferView" : 4,
            "componentType" : 5126,
            "count" : 672,
            "type" : "VEC3"
        },
        {
            "bufferView" : 5,
            "componentType" : 5123,
            "count" : 3360,
            "type" : "SCALAR"
        },
        {
            "bufferView" : 6,
            "componentType" : 5126,
            "count" : 172,
            "max" : [
                0.02363450825214386,
                0.3460421562194824,
                0.02363463304936886
            ],
            "min" : [
                -0.023634515702724457,
                -0.0006672218441963196,
                -0.02363438904285431
            ],
            "type" : "VEC3"
        },
        {
            "bufferView" : 7,
            "componentType" : 5126,
            "count" : 172,
            "type" : "VEC3"
        },
        {
            "bufferView" : 8,
            "componentType" : 5123,
            "count" : 948,
            "type" : "SCALAR"
        },
        {
            "bufferView" : 9,
            "componentType" : 5126,
            "count" : 24,
            "max" : [
                0.010785159654915333,
                0.35616523027420044,
                0.0015438748523592949
            ],
            "min" : [
                -0.001981163863092661,
                0.33230841159820557,
                -0.0015351787442341447
            ],
            "type" : "VEC3"
        },
        {
            "bufferView" : 10,
            "componentType" : 5126,
            "count" : 24,
            "type" : "VEC3"
        },
        {
            "bufferView" : 11,
            "componentType" : 5123,
            "count" : 126,
            "type" : "SCALAR"
        },
        {
            "bufferView" : 12,
            "componentType" : 5126,
            "count" : 120,
            "max" : [
                0.05703643709421158,
                0.0640529990196228,
                0.0570366308093071
            ],
            "min" : [
                -0.057036496698856354,
                -0.0006672218441963196,
                -0.05703640729188919
            ],
            "type" : "VEC3"
        },
        {
            "bufferView" : 13,
            "componentType" : 5126,
            "count" : 120,
            "type" : "VEC3"
        },
        {
            "bufferView" : 14,
            "componentType" : 5123,
            "count" : 576,
            "type" : "SCALAR"
        },
        {
            "bufferView" : 15,
            "componentType" : 5126,
            "count" : 232,
            "max" : [
                1,
                0.8947205543518066,
                1
            ],
            "min" : [
                -1,
                0,
                -1
            ],
            "type" : "VEC3"
        },
        {
            "bufferView" : 16,
            "componentType" : 5126,
            "count" : 232,
            "type" : "VEC3"
        },
        {
            "bufferView" : 17,
            "componentType" : 5126,
            "count" : 232,
            "type" : "VEC2"
        },
        {
            "bufferView" : 18,
            "componentType" : 5123,
            "count" : 1050,
            "type" : "SCALAR"
        },
        {
            "bufferView" : 19,
            "componentType" : 5126,
            "count" : 160,
            "max" : [
                1.2748305797576904,
                0,
                1.2748305797576904
            ],
            "min" : [
                -1.2748303413391113,
                -0.05000000447034836,
                -1.2748305797576904
            ],
            "type" : "VEC3"
        },
        {
            "bufferView" : 20,
            "componentType" : 5126,
            "count" : 160,
            "type" : "VEC3"
        },
        {
            "bufferView" : 21,
            "componentType" : 5126,
            "count" : 160,
            "type" : "VEC2"
        },
        {
            "bufferView" : 22,
            "componentType" : 5123,
            "count" : 768,
            "type" : "SCALAR"
        }
    ],
    "bufferViews" : [
        {
            "buffer" : 0,
            "byteLength" : 16212,
            "byteOffset" : 0
        },
        {
            "buffer" : 0,
            "byteLength" : 16212,
            "byteOffset" : 16212
        },
        {
            "buffer" : 0,
            "byteLength" : 15456,
            "byteOffset" : 32424
        },
        {
            "buffer" : 0,
            "byteLength" : 8064,
            "byteOffset" : 47880
        },
        {
            "buffer" : 0,
            "byteLength" : 8064,
            "byteOffset" : 55944
        },
        {
            "buffer" : 0,
            "byteLength" : 6720,
            "byteOffset" : 64008
        },
        {
            "buffer" : 0,
            "byteLength" : 2064,
            "byteOffset" : 70728
        },
        {
            "buffer" : 0,
            "byteLength" : 2064,
            "byteOffset" : 72792
        },
        {
            "buffer" : 0,
            "byteLength" : 1896,
            "byteOffset" : 74856
        },
        {
            "buffer" : 0,
            "byteLength" : 288,
            "byteOffset" : 76752
        },
        {
            "buffer" : 0,
            "byteLength" : 288,
            "byteOffset" : 77040
        },
        {
            "buffer" : 0,
            "byteLength" : 252,
            "byteOffset" : 77328
        },
        {
            "buffer" : 0,
            "byteLength" : 1440,
            "byteOffset" : 77580
        },
        {
            "buffer" : 0,
            "byteLength" : 1440,
            "byteOffset" : 79020
        },
        {
            "buffer" : 0,
            "byteLength" : 1152,
            "byteOffset" : 80460
        },
        {
            "buffer" : 0,
            "byteLength" : 2784,
            "byteOffset" : 81612
        },
        {
            "buffer" : 0,
            "byteLength" : 2784,
            "byteOffset" : 84396
        },
        {
            "buffer" : 0,
            "byteLength" : 1856,
            "byteOffset" : 87180
        },
        {
            "buffer" : 0,
            "byteLength" : 2100,
            "byteOffset" : 89036
        },
        {
            "buffer" : 0,
            "byteLength" : 1920,
            "byteOffset" : 91136
        },
        {
            "buffer" : 0,
            "byteLength" : 1920,
            "byteOffset" : 93056
        },
        {
            "buffer" : 0,
            "byteLength" : 1280,
            "byteOffset" : 94976
        },
        {
            "buffer" : 0,
            "byteLength" : 1536,
            "byteOffset" : 96256
        }
    ],
    "buffers" : [
        {
            "byteLength" : 97792,
            "uri" : "data:application/octet-stream;base64,"
        }
    ]
}
