{
    "asset" : {
        "generator" : "Khronos glTF Blender I/O v1.6.16",
        "version" : "2.0"
    },
    "scene" : 0,
    "scenes" : [
        {
            "name" : "Scene",
            "nodes" : [
                0,
                1,
                2,
                3,
                4,
                5,
                6
            ]
        }
    ],
    "nodes" : [
        {
            "name" : "Light",
            "rotation" : [
                0.16907575726509094,
                0.7558803558349609,
                -0.27217137813568115,
                0.570947527885437
            ],
            "translation" : [
                7.430764198303223,
                4.596816062927246,
                1.7206132411956787
            ]
        },
        {
            "name" : "Camera",
            "rotation" : [
                0.36047154664993286,
                -0.6289433836936951,
                0.5541766285896301,
                0.4091194272041321
            ],
            "translation" : [
                -22.137361526489258,
                3.5977606773376465,
                -9.08362865447998
            ]
        },
        {
            "mesh" : 0,
            "name" : "Cone",
            "rotation" : [
                0.9097049236297607,
                0.0005387577693909407,
                -0.41457250714302063,
                0.02380269579589367
            ],
            "translation" : [
                0.10392406582832336,
                0.030379533767700195,
                -0.16511529684066772
            ]
        },
        {
            "mesh" : 1,
            "name" : "Sphere",
            "scale" : [
                1,
                1.0247019529342651,
                1
            ],
            "translation" : [
                0.07088795304298401,
                1.4367091655731201,
                -0.20194393396377563
            ]
        },
        {
            "name" : "Light.001",
            "rotation" : [
                0.16907575726509094,
                0.7558803558349609,
                -0.27217137813568115,
                0.570947527885437
            ],
            "translation" : [
                -5.926217079162598,
                4.9969048500061035,
                -5.100327968597412
            ]
        },
        {
            "mesh" : 2,
            "name" : "Sphere.001",
            "scale" : [
                1,
                1.0247019529342651,
                1
            ],
            "translation" : [
                0.038295164704322815,
                2.54189133644104,
                -0.2572115659713745
            ]
        },
        {
            "mesh" : 3,
            "name" : "Sphere.002",
            "scale" : [
                1,
                1.0247019529342651,
                1
            ],
            "translation" : [
                0.07088795304298401,
                3.506927728652954,
                -0.20194393396377563
            ]
        }
    ],
    "materials" : [
        {
            "doubleSided" : true,
            "name" : "Material.002",
            "pbrMetallicRoughness" : {
                "baseColorFactor" : [
                    0.8000000715255737,
                    0.6274557113647461,
                    0.0946512371301651,
                    1
                ],
                "metallicFactor" : 0
            }
        },
        {
            "doubleSided" : true,
            "name" : "Material.003",
            "pbrMetallicRoughness" : {}
        },
        {
            "doubleSided" : true,
            "name" : "Material.004",
            "pbrMetallicRoughness" : {
                "baseColorFactor" : [
                    0.2265850007534027,
                    0.051107008010149,
                    0.021463630720973015,
                    1
                ],
                "metallicFactor" : 0,
                "roughnessFactor" : 0.5
            }
        }
    ],
    "meshes" : [
        {
            "name" : "Cone",
            "primitives" : [
                {
                    "attributes" : {
                        "POSITION" : 0,
                        "NORMAL" : 1,
                        "TEXCOORD_0" : 2
                    },
                    "indices" : 3,
                    "material" : 0
                }
            ]
        },
        {
            "name" : "Sphere",
            "primitives" : [
                {
                    "attributes" : {
                        "POSITION" : 4,
                        "NORMAL" : 5,
                        "TEXCOORD_0" : 6
                    },
                    "indices" : 7,
                    "material" : 1
                }
            ]
        },
        {
            "name" : "Sphere.001",
            "primitives" : [
                {
                    "attributes" : {
                        "POSITION" : 8,
                        "NORMAL" : 9,
                        "TEXCOORD_0" : 10
                    },
                    "indices" : 7
                }
            ]
        },
        {
            "name" : "Sphere.002",
            "primitives" : [
                {
                    "attributes" : {
                        "POSITION" : 11,
                        "NORMAL" : 12,
                        "TEXCOORD_0" : 13
                    },
                    "indices" : 7,
                    "material" : 2
                }
            ]
        }
    ],
    "accessors" : [
        {
            "bufferView" : 0,
            "componentType" : 5126,
            "count" : 128,
            "max" : [
                1,
                1,
                1
            ],
            "min" : [
                -1,
                -1,
                -1
            ],
            "type" : "VEC3"
        },
        {
            "bufferView" : 1,
            "componentType" : 5126,
            "count" : 128,
            "type" : "VEC3"
        },
        {
            "bufferView" : 2,
            "componentType" : 5126,
            "count" : 128,
            "type" : "VEC2"
        },
        {
            "bufferView" : 3,
            "componentType" : 5123,
            "count" : 186,
            "type" : "SCALAR"
        },
        {
            "bufferView" : 4,
            "componentType" : 5126,
            "count" : 1984,
            "max" : [
                0.9999997019767761,
                1,
                0.9999994039535522
            ],
            "min" : [
                -0.9999990463256836,
                -1,
                -0.9999987483024597
            ],
            "type" : "VEC3"
        },
        {
            "bufferView" : 5,
            "componentType" : 5126,
            "count" : 1984,
            "type" : "VEC3"
        },
        {
            "bufferView" : 6,
            "componentType" : 5126,
            "count" : 1984,
            "type" : "VEC2"
        },
        {
            "bufferView" : 7,
            "componentType" : 5123,
            "count" : 2880,
            "type" : "SCALAR"
        },
        {
            "bufferView" : 8,
            "componentType" : 5126,
            "count" : 1984,
            "max" : [
                0.9999997019767761,
                1,
                0.9999994039535522
            ],
            "min" : [
                -0.9999990463256836,
                -1,
                -0.9999987483024597
            ],
            "type" : "VEC3"
        },
        {
            "bufferView" : 9,
            "componentType" : 5126,
            "count" : 1984,
            "type" : "VEC3"
        },
        {
            "bufferView" : 10,
            "componentType" : 5126,
            "count" : 1984,
            "type" : "VEC2"
        },
        {
            "bufferView" : 11,
            "componentType" : 5126,
            "count" : 1984,
            "max" : [
                0.9999997019767761,
                1,
                0.9999994039535522
            ],
            "min" : [
                -0.9999990463256836,
                -1,
                -0.9999987483024597
            ],
            "type" : "VEC3"
        },
        {
            "bufferView" : 12,
            "componentType" : 5126,
            "count" : 1984,
            "type" : "VEC3"
        },
        {
            "bufferView" : 13,
            "componentType" : 5126,
            "count" : 1984,
            "type" : "VEC2"
        }
    ],
    "bufferViews" : [
        {
            "buffer" : 0,
            "byteLength" : 1536,
            "byteOffset" : 0
        },
        {
            "buffer" : 0,
            "byteLength" : 1536,
            "byteOffset" : 1536
        },
        {
            "buffer" : 0,
            "byteLength" : 1024,
            "byteOffset" : 3072
        },
        {
            "buffer" : 0,
            "byteLength" : 372,
            "byteOffset" : 4096
        },
        {
            "buffer" : 0,
            "byteLength" : 23808,
            "byteOffset" : 4468
        },
        {
            "buffer" : 0,
            "byteLength" : 23808,
            "byteOffset" : 28276
        },
        {
            "buffer" : 0,
            "byteLength" : 15872,
            "byteOffset" : 52084
        },
        {
            "buffer" : 0,
            "byteLength" : 5760,
            "byteOffset" : 67956
        },
        {
            "buffer" : 0,
            "byteLength" : 23808,
            "byteOffset" : 73716
        },
        {
            "buffer" : 0,
            "byteLength" : 23808,
            "byteOffset" : 97524
        },
        {
            "buffer" : 0,
            "byteLength" : 15872,
            "byteOffset" : 121332
        },
        {
            "buffer" : 0,
            "byteLength" : 23808,
            "byteOffset" : 137204
        },
        {
            "buffer" : 0,
            "byteLength" : 23808,
            "byteOffset" : 161012
        },
        {
            "buffer" : 0,
            "byteLength" : 15872,
            "byteOffset" : 184820
        }
    ],
    "buffers" : [
        {
            "byteLength" : 200692,
            "uri" : "data:application/octet-stream;base64,"
        }
    ]
}
